<?xml version="1.0" standalone="no"?>
<!DOCTYPE svg PUBLIC "-//W3C//DTD SVG 20010904//EN"
 "http://www.w3.org/TR/2001/REC-SVG-20010904/DTD/svg10.dtd">
<svg version="1.0" xmlns="http://www.w3.org/2000/svg"
 width="512.000000pt" height="512.000000pt" viewBox="0 0 512.000000 512.000000"
 preserveAspectRatio="xMidYMid meet">

<g transform="translate(0.000000,512.000000) scale(0.100000,-0.100000)"
fill="#000000" stroke="none">
<path d="M2098 4651 l-33 -29 -3 -135 -3 -134 -97 -32 c-53 -18 -149 -57 -212
-87 l-114 -55 -86 85 c-95 94 -122 109 -172 96 -44 -13 -614 -580 -626 -625
-15 -51 3 -85 93 -175 l86 -86 -55 -114 c-30 -63 -69 -159 -87 -212 l-32 -97
-134 -3 -135 -3 -29 -33 -29 -32 0 -165 0 -165 -175 0 c-192 0 -221 -7 -243
-55 -24 -51 -4 -112 43 -133 38 -17 2112 -17 2150 0 49 22 68 85 41 137 -25
47 -49 51 -292 51 l-226 0 7 43 c22 127 90 278 176 384 104 131 273 239 444
284 113 30 298 30 410 0 280 -75 504 -285 589 -551 13 -41 27 -94 31 -117 l7
-43 -226 0 c-243 0 -267 -4 -292 -51 -27 -52 -8 -115 41 -137 38 -17 2112 -17
2150 0 49 22 68 85 41 137 -24 45 -52 51 -241 51 l-175 0 0 165 0 165 -29 32
-29 33 -135 3 -134 3 -32 97 c-18 53 -57 149 -87 212 l-55 114 86 86 c89 89
108 124 94 175 -12 44 -583 612 -627 625 -50 13 -77 -2 -173 -96 l-85 -85
-114 55 c-62 30 -157 69 -211 87 l-98 32 -3 134 -3 135 -33 29 -32 29 -430 0
-430 0 -32 -29z m762 -290 c0 -113 1 -121 25 -149 17 -21 41 -34 78 -42 109
-26 257 -84 385 -151 73 -38 143 -69 155 -69 31 0 60 21 142 101 l70 69 208
-208 207 -207 -56 -55 c-73 -71 -114 -127 -114 -156 0 -13 31 -83 69 -156 67
-128 125 -276 151 -385 8 -37 21 -61 42 -78 28 -24 36 -25 149 -25 l119 0 0
-100 0 -100 -448 0 -448 0 -13 77 c-36 213 -149 424 -309 575 -305 287 -737
364 -1123 198 -318 -136 -553 -435 -610 -774 l-13 -76 -448 0 -448 0 0 100 0
100 119 0 c113 0 121 1 149 25 21 17 34 41 42 78 26 109 84 257 151 385 38 73
69 143 69 156 0 29 -41 85 -114 156 l-56 55 207 207 208 208 70 -69 c83 -81
111 -101 143 -101 12 0 82 31 155 69 127 67 275 125 384 151 37 8 61 21 78 42
24 28 25 36 25 149 l0 119 300 0 300 0 0 -119z"/>
<path d="M2511 2636 c-87 -48 -50 -186 49 -186 51 0 100 49 100 99 0 75 -83
124 -149 87z"/>
<path d="M3992 2119 c-74 -9 -177 -54 -238 -104 -23 -19 -61 -62 -83 -96 -161
-241 -75 -563 182 -685 58 -27 97 -37 185 -48 130 -16 184 -42 233 -109 62
-85 72 -192 27 -282 -92 -184 -343 -203 -461 -35 -43 62 -68 79 -115 80 -45 0
-92 -46 -92 -90 0 -46 35 -107 99 -170 184 -184 484 -180 664 9 181 189 177
474 -7 656 -94 92 -157 118 -355 144 -111 14 -196 81 -229 180 -15 44 -15 123
0 173 15 52 87 131 143 158 98 47 249 15 313 -67 56 -71 115 -82 168 -29 43
43 44 79 6 132 -98 135 -264 204 -440 183z"/>
<path d="M906 2069 c-148 -35 -276 -172 -306 -329 -13 -69 -13 -841 0 -910 30
-156 143 -282 293 -325 47 -13 93 -16 245 -13 l188 3 67 33 c136 67 226 196
235 337 4 72 4 75 -26 104 -58 59 -154 26 -167 -57 -17 -108 -53 -165 -127
-203 -36 -18 -56 -20 -208 -17 l-168 3 -44 30 c-24 17 -54 51 -68 75 l-25 45
-3 417 c-2 267 1 432 8 456 14 55 61 115 106 138 55 27 326 34 390 9 78 -30
121 -95 139 -209 13 -84 107 -116 166 -57 24 25 29 38 29 79 0 166 -125 332
-287 382 -55 17 -91 20 -232 19 -91 -1 -183 -5 -205 -10z"/>
<path d="M1939 2031 l-29 -29 0 -715 0 -715 25 -30 c29 -35 69 -45 110 -28 62
26 60 2 65 553 l5 503 210 -376 c225 -404 237 -420 304 -410 18 3 41 12 50 20
10 9 112 184 227 390 l209 373 5 -496 c6 -553 4 -537 73 -560 40 -14 75 -3
106 30 21 23 21 26 21 740 l0 717 -26 31 c-21 26 -33 31 -69 31 -26 0 -51 -7
-63 -17 -11 -10 -136 -225 -277 -478 -142 -253 -261 -463 -264 -468 -4 -4
-124 201 -266 455 -143 255 -270 473 -282 486 -34 34 -96 31 -134 -7z"/>
</g>
</svg>
